<svg xmlns="http://www.w3.org/2000/svg" data-name="Layer 1" viewBox="0 0 100 125" x="0px" y="0px">
    <path
        d="M62.36,43.15v-14a9.28,9.28,0,0,0-9.28-9.27H46.92a9.28,9.28,0,0,0-9.28,9.27,2,2,0,0,0,4,0,5.29,5.29,0,0,1,5.28-5.27h6.16a5.29,5.29,0,0,1,5.28,5.27v14H37.73a9.49,9.49,0,0,0-9.48,9.48v18a9.49,9.49,0,0,0,9.48,9.48H62.27a9.49,9.49,0,0,0,9.48-9.48v-18A9.49,9.49,0,0,0,62.36,43.15Zm5.39,27.46a5.49,5.49,0,0,1-5.48,5.48H37.73a5.49,5.49,0,0,1-5.48-5.48v-18a5.49,5.49,0,0,1,5.48-5.48H62.27a5.49,5.49,0,0,1,5.48,5.48Z" />
    <path
        d="M54.73,55.18a6.46,6.46,0,0,0-6.12,4.44H39.46a2,2,0,0,0,0,4h9.15a6.44,6.44,0,1,0,6.12-8.44Zm0,8.87a2.44,2.44,0,1,1,2.43-2.43A2.43,2.43,0,0,1,54.73,64.05Z" />
</svg>